<svg width="240" height="240" viewBox="0 0 240 240" fill="none" xmlns="http://www.w3.org/2000/svg">
<mask id="mask0" mask-type="alpha" maskUnits="userSpaceOnUse" x="0" y="0" width="240" height="240">
<rect width="240" height="240" rx="12" fill="#C4C4C4"/>
</mask>
<g mask="url(#mask0)">
<path d="M30.4046 65.139C30.4046 60.3151 34.3151 56.4046 39.139 56.4046H320.861C325.685 56.4046 329.595 60.3151 329.595 65.139V245.861C329.595 250.685 325.685 254.595 320.861 254.595H39.139C34.3151 254.595 30.4046 250.685 30.4046 245.861V65.139Z" fill="#F1F7FF" stroke="#F0F4F7" stroke-width="0.809215"/>
<rect x="226.863" y="86.7432" width="0.612478" height="139.118" fill="white"/>
<rect x="236.648" y="173.531" width="7.34974" height="7.322" rx="3.661" fill="#2D81F7"/>
<rect x="236.648" y="161.329" width="7.34974" height="7.322" rx="3.661" fill="#1BD697"/>
<rect x="236.648" y="161.329" width="7.34974" height="7.322" rx="3.661" fill="#FFC370"/>
<rect x="123.043" y="127.162" width="15.5569" height="56.1353" fill="#C6DDFF"/>
<rect x="143.867" y="139.978" width="15.3119" height="43.3218" fill="#C6DDFF"/>
<rect x="164.691" y="161.333" width="15.3119" height="21.966" fill="#C6DDFF"/>
<path d="M171.117 167.58C171.584 167.214 171.67 166.534 171.261 166.103C169.462 164.209 167.052 162.989 164.437 162.672C161.465 162.311 158.471 163.145 156.114 164.992C153.757 166.838 152.23 169.546 151.869 172.518C151.551 175.133 152.159 177.765 153.567 179.965C153.887 180.465 154.568 180.544 155.035 180.178L163.076 173.879L171.117 167.58Z" fill="#FFAD3B"/>
<path d="M158.795 161.937C159.021 161.388 158.741 160.742 158.149 160.791C157.144 160.873 155.975 161.527 154.779 162.702C153.135 164.316 151.573 166.779 150.437 169.549C149.301 172.319 148.683 175.17 148.72 177.473C148.747 179.149 149.119 180.436 149.777 181.2C150.165 181.65 150.817 181.387 151.042 180.838L154.919 171.388L158.795 161.937Z" fill="#FFAD3B"/>
<rect x="185.514" y="147.3" width="15.3119" height="35.9998" fill="#C6DDFF"/>
<path d="M30.6155 64.8724C30.6155 60.0485 34.5261 56.138 39.35 56.138H320.682C325.506 56.138 329.416 60.0485 329.416 64.8724V83.5939H30.6155V64.8724Z" fill="white" stroke="#F0F4F7" stroke-width="0.809215"/>
<path d="M47.4187 66.5511C47.8491 69.1648 50.2152 71.1637 53.0696 71.1637C55.895 71.1637 58.2421 69.205 58.7068 66.6302C58.7663 66.3885 58.7909 66.1954 58.7834 66.03C58.7834 65.8405 58.6414 65.6934 58.4446 65.6934H58.1252H48.0676H47.6995C47.5028 65.6934 47.3609 65.8403 47.3607 66.0296C47.3603 66.0296 47.3598 66.0295 47.3594 66.0295C47.3596 66.0338 47.3599 66.038 47.3602 66.0422C47.3551 66.1863 47.374 66.3514 47.4187 66.5511L47.4187 66.5511Z" fill="#2D81F7"/>
<path d="M55.8766 74.5155C55.6614 73.2086 54.4783 72.2092 53.0512 72.2092C51.6384 72.2092 50.4649 73.1885 50.2325 74.4759C50.2028 74.5968 50.1905 74.6933 50.1942 74.776C50.1942 74.8708 50.2652 74.9443 50.3637 74.9443H50.5233H55.5521H55.7362C55.8345 74.9443 55.9055 74.8709 55.9056 74.7762C55.9058 74.7762 55.906 74.7762 55.9062 74.7763C55.9061 74.7741 55.906 74.772 55.9058 74.7699C55.9084 74.6979 55.899 74.6153 55.8766 74.5155Z" fill="#08BD80"/>
<path d="M78.4174 224.144H217.119V227.369H78.4174V224.144Z" fill="white"/>
<path d="M78.4082 223.907H179.928V226.984H78.4082V223.907Z" fill="#2D81F7"/>
<path d="M181.118 229.127C179.133 229.127 177.524 227.517 177.524 225.532C177.524 223.547 179.133 221.938 181.118 221.938C183.104 221.938 184.713 223.547 184.713 225.532C184.713 227.517 183.104 229.127 181.118 229.127Z" fill="#C6DDFF"/>
<path d="M181.13 227.325C180.139 227.325 179.336 226.522 179.336 225.531C179.336 224.54 180.139 223.737 181.13 223.737C182.121 223.737 182.924 224.54 182.924 225.531C182.924 226.522 182.121 227.325 181.13 227.325Z" fill="#2D81F7"/>
<circle r="4.4592" transform="matrix(-1 8.74228e-08 8.74228e-08 1 199.338 102.249)" fill="#EB5757"/>
<path d="M206.133 106.142C208.493 103.951 208.492 100.412 205.796 98.3891" stroke="#EB5757" stroke-opacity="0.5" stroke-width="2.32521" stroke-linecap="round"/>
<path d="M209.824 107.984C213.414 104.65 213.414 99.2642 209.311 96.1864" stroke="#EB5757" stroke-opacity="0.2" stroke-width="2.32521" stroke-linecap="round"/>
<path d="M188.032 107.984C184.441 104.65 184.442 99.2642 188.545 96.1864" stroke="#EB5757" stroke-opacity="0.2" stroke-width="2.32521" stroke-linecap="round"/>
<path d="M192.047 106.142C189.687 103.951 189.688 100.412 192.384 98.3891" stroke="#EB5757" stroke-opacity="0.5" stroke-width="2.32521" stroke-linecap="round"/>
<path d="M42.9338 244.433L99.148 244.433L103.458 151.785L39.3225 151.316L42.9338 244.433Z" fill="#FFCDCD"/>
<path d="M51.3519 218.231C59.1688 214.844 74.2743 210.981 72.9693 213.794C72.785 214.192 72.5411 214.527 72.2581 214.809C74.2427 214.426 76.3034 214.37 77.3135 215.397C79.5923 217.715 79.5517 217.781 76.7372 222.348L76.7168 222.381C73.8822 226.981 72.7327 226.771 65.5836 225.819C58.0292 224.813 52.489 224.402 50.6633 224.322L51.3519 218.231Z" fill="#FFAD3B"/>
<path d="M41.1015 183.307L28.9963 209.018L33.9376 210.279L32.9477 218.123L15.8582 226.232L2.19251 224.89L28.3775 171.228L39.2357 151.368" fill="#EB5757"/>
<path d="M28.5594 209.474L62.1955 212.278L61.3118 226.607L15.8611 226.233L8.75723 215.837" fill="#EB5757"/>
<path d="M124.333 189.379L103.459 151.785L101.903 189.781L124.726 213.338L158.519 182.608L149.261 168.442L124.333 189.379Z" fill="#EB5757"/>
<path d="M85.7668 147.767L87.252 109.249L57.2525 107.768L59.7524 147.767H61.1138H85.7668Z" fill="#FFAD3B"/>
<path d="M58.3733 125.111L57.4575 108.585C57.2821 105.42 59.7316 102.723 62.8992 102.595L87.1155 101.616C88.6637 101.553 90.2337 102.069 91.2122 103.271C92.2765 104.577 93.3084 106.407 93.4905 109.055C93.4905 109.055 93.7745 113.446 91.5148 115.608C84.732 122.1 63.8557 115.608 63.8557 115.608L63.0655 127.078L58.3733 125.111Z" fill="#3C4852"/>
<path d="M89.752 136.517L85.377 123.393L82.8771 136.517H89.752Z" fill="#FFAD3B"/>
<path d="M76.002 155.891V144.017H59.7522V155.891C59.7522 160.379 63.3899 164.016 67.8771 164.016C72.3643 164.016 76.002 160.379 76.002 155.891Z" fill="#FFAD3B"/>
<rect x="57.25" y="124.018" width="3.74994" height="7.49987" rx="1.24998" fill="#FFAD3B"/>
</g>
</svg>
