<svg width="240" height="240" viewBox="0 0 240 240" fill="none" xmlns="http://www.w3.org/2000/svg">
<mask id="mask0" mask-type="alpha" maskUnits="userSpaceOnUse" x="0" y="0" width="240" height="240">
<rect width="240" height="240" rx="12" fill="#C4C4C4"/>
</mask>
<g mask="url(#mask0)">
<path d="M163.168 212.772C158.933 222.221 151.215 230.47 141.676 237.601H207.786C224.72 194.054 224.72 134.202 224.72 134.202H195.45C195.453 134.202 181.422 172.047 163.168 212.772Z" fill="#627984"/>
<path d="M86.2656 117.528C84.2656 109.862 82.8656 95.4285 85.2656 97.0285C86.2243 97.6676 86.6564 98.6738 86.8297 99.6517C86.9849 95.0107 87.5097 86.4432 89.2655 87.0285C92.2655 88.0285 97.7655 97.0285 95.2655 105.529C93.2655 112.329 92.0989 117.362 91.7655 119.029L86.2656 117.528Z" fill="#FFAD3B"/>
<path d="M123.5 157L101.142 161.214L94.5705 114.739L82.5723 112L80 183.5H131.5L123.5 157Z" fill="#6CCBAB"/>
<path d="M201.001 240.5H123.066V156.664L177.501 156.5L201.001 240.5Z" fill="#A6F1D8"/>
<path d="M146.297 215.219L85.5883 216.244L50.8552 154L44.001 158.39L80.3399 223.717L146.297 224V215.219Z" fill="#EB5757"/>
<path d="M151.147 154.765C148.316 155.037 145.446 154.62 142.702 153.538C139.958 152.457 137.394 150.732 135.155 148.462C132.917 146.192 131.048 143.421 129.656 140.308C128.264 137.195 127.375 133.801 127.041 130.319C126.707 126.837 126.934 123.335 127.709 120.014C128.485 116.693 129.792 113.618 131.559 110.964C133.325 108.31 135.514 106.129 138.003 104.545C140.491 102.962 143.229 102.007 146.061 101.735L148.604 128.25L151.147 154.765Z" fill="#3C4852"/>
<path d="M127.494 107.001H147.946H149.287V131.474H127.494V107.001Z" fill="#FFAD3B"/>
<path d="M151.751 165C156.905 165 161.084 161.605 161.084 157.417V126.5H142.417V157.417C142.417 161.605 146.596 165 151.751 165Z" fill="#FFAD3B"/>
<path d="M124.545 107.833V126L121.002 136L125.502 137L128.776 147.699C128.946 148.254 129.498 148.6 130.071 148.51L155.252 144.583" fill="#FFAD3B"/>
<path fill-rule="evenodd" clip-rule="evenodd" d="M123.217 103.967C119.717 107.468 117.75 112.216 117.75 117.167H124.05L124.983 110.167L125.606 117.167L136.417 117.167H155.083C155.083 112.216 153.117 107.468 149.616 103.967C146.115 100.467 141.367 98.5 136.417 98.5C131.466 98.5 126.718 100.467 123.217 103.967Z" fill="#3C4852"/>
<path d="M145.406 143.445C145.941 148.618 150.719 153.346 155.839 152.512C156.887 152.342 157.896 152.064 158.843 151.616C162.521 149.875 165.769 147.492 168.402 144.602C171.035 141.712 173.001 138.373 174.188 134.774C175.374 131.175 175.759 127.388 175.319 123.629C174.878 119.869 173.622 116.211 171.622 112.863C169.622 109.514 166.918 106.542 163.662 104.115C160.407 101.688 156.665 99.8539 152.65 98.7175C148.635 97.5811 144.425 97.1646 140.261 97.4918L143.613 126.12L145.406 143.445Z" fill="#3C4852"/>
<circle cx="146.503" cy="129.416" r="4.08333" fill="#FFAD3B"/>
<path d="M147.136 138.116C146.365 139.618 145.963 141.229 145.953 142.858C145.943 144.488 146.324 146.102 147.075 147.611C147.827 149.119 148.933 150.492 150.332 151.65C151.731 152.808 153.394 153.728 155.227 154.36C157.06 154.991 159.027 155.32 161.015 155.329C163.004 155.337 164.975 155.025 166.816 154.409C168.657 153.794 170.332 152.887 171.745 151.741C173.158 150.595 174.282 149.232 175.053 147.73L161.094 142.923L147.136 138.116Z" fill="#3C4852"/>
<path d="M129.49 100.126L143.003 120.666L141.342 98.5149C141.293 97.8652 140.722 97.3813 140.073 97.4403L130.359 98.3234C129.481 98.4032 129.006 99.3901 129.49 100.126Z" fill="#EB5757"/>
<path d="M122.999 218C123.087 218.225 138.499 218.5 138.499 218.5L154.999 218L155.025 211.103C153.358 210.767 148.327 209.592 141.53 207.58C133.035 205.066 121.84 215.058 122.999 218Z" fill="#FFAD3B"/>
<path d="M146 218.5L213 218L198.887 184.433C195.988 177.539 191.825 171.247 186.614 165.882L177.5 156.5L184.868 198.608L146 203.612V218.5Z" fill="#6CCBAB"/>
<path d="M207.785 237.601H223.647C238.352 192.095 238.355 134.202 238.355 134.202H224.723C224.719 134.202 224.719 194.054 207.785 237.601Z" fill="#3C4852"/>
<path d="M221.127 223.568H25.2432C15.72 223.568 8 231.288 8 240.812H238.37C238.37 231.288 230.65 223.568 221.127 223.568Z" fill="#E9F2FF"/>
<path d="M44.4835 194.083L41.4809 192.101L44.3883 190.084L45.1525 190.598L44.4835 194.083Z" fill="#A6F1D8"/>
<rect width="3.59746" height="16.007" transform="matrix(-0.834604 -0.550851 0.551697 -0.834044 35.6523 207.433)" fill="#08BD80"/>
<rect width="0.876172" height="3.59732" transform="matrix(0.557611 -0.830102 0.831081 0.556151 40.5117 193.541)" fill="#A6F1D8"/>
<rect width="3.60707" height="16.0004" transform="matrix(0.985493 0.169719 -0.169852 0.985469 35.3672 191.053)" fill="#2D81F7"/>
<rect width="3.59871" height="8.28985" transform="matrix(0.985493 0.169719 -0.169852 0.985469 36.0742 187)" fill="#D3E5FF"/>
<rect width="6.59939" height="0.916718" transform="matrix(-0.161049 0.986946 -0.987082 -0.160216 36.4336 187.959)" fill="#28496B"/>
<path d="M34.0811 212.714C34.0859 213.396 33.5369 213.953 32.8549 213.958L31.7255 213.965C31.0435 213.97 30.4866 213.421 30.4818 212.738L30.4723 211.403L34.0716 211.379L34.0811 212.714Z" fill="#EB5757"/>
<rect width="3.59936" height="1.54396" transform="matrix(-0.999977 0.0067253 -0.00711388 -0.999975 34.0703 211.379)" fill="#28496B"/>
<path d="M27.7995 195.135L24.2947 195.953L25.2055 191.956L27.7995 195.135Z" fill="#F8DCB7"/>
<path d="M24.7504 193.954L26.5028 193.545L25.2058 191.956L24.7504 193.954Z" fill="#28496B"/>
<rect width="1.7993" height="16.001" transform="matrix(-0.973815 0.22737 -0.228374 -0.973567 31.4531 210.712)" fill="#FFAD3B"/>
<rect width="1.7993" height="16.001" transform="matrix(-0.973815 0.22737 -0.228374 -0.973567 29.6992 211.121)" fill="#F8DCB7"/>
<path d="M32.1086 213.515C32.2644 214.179 31.8522 214.843 31.188 214.999L30.0884 215.255C29.4242 215.41 28.7595 214.998 28.6038 214.334L28.2987 213.033L31.8035 212.215L32.1086 213.515Z" fill="#EB5757"/>
<rect width="3.59906" height="1.54409" transform="matrix(-0.973815 0.22737 -0.228374 -0.973567 31.8047 212.215)" fill="#28496B"/>
<path d="M34.6667 213.09L37.8967 214.676L34.6545 217.19L34.6667 213.09Z" fill="#F8DCB7"/>
<path d="M36.2762 215.934L34.6612 215.141L34.6552 217.191L36.2762 215.934Z" fill="#28496B"/>
<rect width="1.79895" height="16.0042" transform="matrix(0.897639 0.440707 -0.441454 0.897295 41.7305 198.73)" fill="#FFAD3B"/>
<rect width="1.79895" height="16.0042" transform="matrix(0.897639 0.440707 -0.441454 0.897295 43.3477 199.523)" fill="#F8DCB7"/>
<path d="M43.002 196.146C43.3029 195.534 44.0429 195.282 44.6548 195.582L45.669 196.08C46.2809 196.38 46.533 197.12 46.232 197.731L45.6417 198.931L42.4117 197.345L43.002 196.146Z" fill="#EB5757"/>
<rect width="3.59835" height="1.5444" transform="matrix(0.897639 0.440707 -0.441454 0.897295 42.4141 197.346)" fill="#FFAD3B"/>
<path d="M24.4141 203.217H44.8831L41.8389 224.38H27.4583L24.4141 203.217Z" fill="#FFDBA9"/>
<path d="M23 202.062H46.2936V206.148H23V202.062Z" fill="#FFAD3B"/>
<path d="M53.4541 224.495L53.4875 220.901L57.161 222.73L53.4541 224.495Z" fill="#F8DCB7"/>
<path d="M55.3259 221.817L55.3092 223.613L57.1626 222.731L55.3259 221.817Z" fill="black"/>
<rect width="1.79675" height="16.0237" transform="matrix(0.00929436 -0.999957 0.99996 0.00889924 37.4316 224.352)" fill="#FFAD3B"/>
<rect width="1.79675" height="16.0237" transform="matrix(0.00929436 -0.999957 0.99996 0.00889924 37.4473 222.556)" fill="#F8DCB7"/>
<path d="M34.5455 224.326C33.8634 224.32 33.3157 223.763 33.322 223.081L33.3325 221.957C33.3388 221.275 33.8968 220.727 34.5789 220.733L35.9184 220.745L35.885 224.338L34.5455 224.326Z" fill="#EB5757"/>
<rect width="3.59396" height="1.54628" transform="matrix(0.00929436 -0.999957 0.99996 0.00889924 35.8848 224.338)" fill="#FFAD3B"/>
<path d="M188.152 88.6253L197.959 78.0918L169.811 69.2785L171.956 84.2731C172.027 84.7667 172.058 85.2654 172.049 85.7642L171.817 98.4736C171.816 98.5014 171.846 98.5195 171.87 98.5063L183.326 92.3494C185.127 91.3812 186.758 90.123 188.152 88.6253Z" fill="#08BD80"/>
<path d="M225.84 77.4337C225.84 69.2265 219.187 62.5732 210.979 62.5732H170.473C162.266 62.5732 155.612 69.2265 155.612 77.4337C155.612 85.641 162.266 92.2942 170.473 92.2942H210.979C219.187 92.2942 225.84 85.641 225.84 77.4337Z" fill="#97E6CB"/>
<ellipse rx="2.77213" ry="2.78634" transform="matrix(-1 0 0 1 199.036 78.3615)" fill="white"/>
<ellipse rx="2.77213" ry="2.78634" transform="matrix(-1 0 0 1 189.798 78.3606)" fill="white"/>
<ellipse rx="2.77213" ry="2.78634" transform="matrix(-1 0 0 1 180.552 78.3606)" fill="white"/>
</g>
</svg>
