<svg width="36" height="36" viewBox="0 0 36 36" fill="none" xmlns="http://www.w3.org/2000/svg">
<rect x="22" y="31" width="16" height="26" rx="2" transform="rotate(-180 22 31)" fill="#FFDBA9"/>
<ellipse cx="21.9993" cy="18.0989" rx="4.41922" ry="4.28441" fill="#FFAD3B"/>
<path d="M20.2305 19.8125H23.7658V23.9538C23.7658 24.5061 23.3181 24.9538 22.7658 24.9538H21.2305C20.6782 24.9538 20.2305 24.5061 20.2305 23.9538V19.8125Z" fill="#FFAD3B"/>
<rect x="21.1152" y="24.0967" width="1.76769" height="2.57065" rx="0.883844" fill="#FFAD3B"/>
<rect x="21.1172" y="9" width="1.76769" height="3.42753" rx="0.883844" fill="#FFAD3B"/>
<rect width="1.74561" height="3.4725" rx="0.872805" transform="matrix(0.775733 -0.631061 0.654428 0.756125 14 12.5225)" fill="#FFAD3B"/>
<rect width="1.74561" height="3.4725" rx="0.872805" transform="matrix(-0.775733 -0.631061 -0.654428 0.756125 30 12.5225)" fill="#FFAD3B"/>
<path d="M11 5C11 6.10457 11.8954 7 13 7L15 7C16.1046 7 17 6.10457 17 5L11 5Z" fill="#FFAD3B"/>
<path d="M11 29.5C11 29.7761 11.2239 30 11.5 30L16.5 30C16.7761 30 17 29.7761 17 29.5C17 29.2239 16.7761 29 16.5 29L11.5 29C11.2239 29 11 29.2239 11 29.5Z" fill="#FFAD3B"/>
</svg>
